<?xml version="1.0" encoding="utf-8" standalone="no"?>
<!DOCTYPE svg PUBLIC "-//W3C//DTD SVG 1.1//EN"
  "http://www.w3.org/Graphics/SVG/1.1/DTD/svg11.dtd">
<svg xmlns:xlink="http://www.w3.org/1999/xlink" width="347.04pt" height="353.42849pt" viewBox="0 0 347.04 353.42849" xmlns="http://www.w3.org/2000/svg" version="1.1">
 <metadata>
  <rdf:RDF xmlns:dc="http://purl.org/dc/elements/1.1/" xmlns:cc="http://creativecommons.org/ns#" xmlns:rdf="http://www.w3.org/1999/02/22-rdf-syntax-ns#">
   <cc:Work>
    <dc:type rdf:resource="http://purl.org/dc/dcmitype/StillImage"/>
    <dc:date>2024-09-10T08:55:03.246848</dc:date>
    <dc:format>image/svg+xml</dc:format>
    <dc:creator>
     <cc:Agent>
      <dc:title>Matplotlib v3.9.2, https://matplotlib.org/</dc:title>
     </cc:Agent>
    </dc:creator>
   </cc:Work>
  </rdf:RDF>
 </metadata>
 <defs>
  <style type="text/css">*{stroke-linejoin: round; stroke-linecap: butt}</style>
 </defs>
 <g id="figure_1">
  <g id="patch_1">
   <path d="M 0 353.42849 
L 347.04 353.42849 
L 347.04 -0 
L 0 -0 
z
" style="fill: #ffffff"/>
  </g>
  <g id="axes_1">
   <g id="patch_2">
    <path d="M 173.52 13.58849 
L 55.914 62.30249 
L 7.2 179.90849 
L 55.914 297.51449 
L 173.52 346.22849 
L 291.126 297.51449 
L 339.84 179.90849 
L 291.126 62.30249 
z
" style="fill: #ffffff"/>
   </g>
   <g id="patch_3">
    <path d="M 173.52 51.061702 
L 84.205904 90.594393 
L 34.237101 179.90849 
L 57.292213 296.136277 
L 173.52 331.491938 
L 277.84956 284.23805 
L 335.640811 179.90849 
L 269.428807 83.999683 
z
" clip-path="url(#p62197ce2bb)" style="fill: #8de5a1; opacity: 0.3; stroke: #8de5a1; stroke-linejoin: miter"/>
   </g>
   <g id="patch_4">
    <path d="M 173.52 46.716279 
L 84.856467 91.244957 
L 29.784918 179.90849 
L 72.488057 280.940433 
L 173.52 325.131877 
L 275.821426 282.209916 
L 332.257764 179.90849 
L 267.733539 85.694951 
z
" clip-path="url(#p62197ce2bb)" style="fill: #ffffff; stroke: #ffffff; stroke-linejoin: miter"/>
   </g>
   <g id="patch_5">
    <path d="M 173.52 46.716279 
L 84.856467 91.244957 
L 29.784918 179.90849 
L 72.488057 280.940433 
L 173.52 325.131877 
L 275.821426 282.209916 
L 332.257764 179.90849 
L 267.733539 85.694951 
z
" clip-path="url(#p62197ce2bb)" style="fill: #ff9f9b; opacity: 0.3; stroke: #ff9f9b; stroke-linejoin: miter"/>
   </g>
   <g id="matplotlib.axis_1">
    <g id="xtick_1">
     <g id="line2d_1">
      <path d="M 173.52 179.90849 
L 173.52 159.11849 
L 173.52 138.32849 
L 173.52 117.53849 
L 173.52 96.74849 
L 173.52 75.95849 
L 173.52 55.16849 
L 173.52 34.37849 
L 173.52 13.58849 
" clip-path="url(#p62197ce2bb)" style="fill: none; stroke: #b0b0b0; stroke-width: 0.8; stroke-linecap: square"/>
     </g>
    </g>
    <g id="xtick_2">
     <g id="line2d_2">
      <path d="M 173.52 179.90849 
L 158.81925 165.20774 
L 144.1185 150.50699 
L 129.41775 135.80624 
L 114.717 121.10549 
L 100.01625 106.40474 
L 85.3155 91.70399 
L 70.61475 77.00324 
L 55.914 62.30249 
" clip-path="url(#p62197ce2bb)" style="fill: none; stroke: #b0b0b0; stroke-width: 0.8; stroke-linecap: square"/>
     </g>
    </g>
    <g id="xtick_3">
     <g id="line2d_3">
      <path d="M 173.52 179.90849 
L 152.73 179.90849 
L 131.94 179.90849 
L 111.15 179.90849 
L 90.36 179.90849 
L 69.57 179.90849 
L 48.78 179.90849 
L 27.99 179.90849 
L 7.2 179.90849 
" clip-path="url(#p62197ce2bb)" style="fill: none; stroke: #b0b0b0; stroke-width: 0.8; stroke-linecap: square"/>
     </g>
    </g>
    <g id="xtick_4">
     <g id="line2d_4">
      <path d="M 173.52 179.90849 
L 158.81925 194.60924 
L 144.1185 209.30999 
L 129.41775 224.01074 
L 114.717 238.71149 
L 100.01625 253.41224 
L 85.3155 268.11299 
L 70.61475 282.81374 
L 55.914 297.51449 
" clip-path="url(#p62197ce2bb)" style="fill: none; stroke: #b0b0b0; stroke-width: 0.8; stroke-linecap: square"/>
     </g>
    </g>
    <g id="xtick_5">
     <g id="line2d_5">
      <path d="M 173.52 179.90849 
L 173.52 200.69849 
L 173.52 221.48849 
L 173.52 242.27849 
L 173.52 263.06849 
L 173.52 283.85849 
L 173.52 304.64849 
L 173.52 325.43849 
L 173.52 346.22849 
" clip-path="url(#p62197ce2bb)" style="fill: none; stroke: #b0b0b0; stroke-width: 0.8; stroke-linecap: square"/>
     </g>
    </g>
    <g id="xtick_6">
     <g id="line2d_6">
      <path d="M 173.52 179.90849 
L 188.22075 194.60924 
L 202.9215 209.30999 
L 217.62225 224.01074 
L 232.323 238.71149 
L 247.02375 253.41224 
L 261.7245 268.11299 
L 276.42525 282.81374 
L 291.126 297.51449 
" clip-path="url(#p62197ce2bb)" style="fill: none; stroke: #b0b0b0; stroke-width: 0.8; stroke-linecap: square"/>
     </g>
    </g>
    <g id="xtick_7">
     <g id="line2d_7">
      <path d="M 173.52 179.90849 
L 194.31 179.90849 
L 215.1 179.90849 
L 235.89 179.90849 
L 256.68 179.90849 
L 277.47 179.90849 
L 298.26 179.90849 
L 319.05 179.90849 
L 339.84 179.90849 
" clip-path="url(#p62197ce2bb)" style="fill: none; stroke: #b0b0b0; stroke-width: 0.8; stroke-linecap: square"/>
     </g>
    </g>
    <g id="xtick_8">
     <g id="line2d_8">
      <path d="M 173.52 179.90849 
L 188.22075 165.20774 
L 202.9215 150.50699 
L 217.62225 135.80624 
L 232.323 121.10549 
L 247.02375 106.40474 
L 261.7245 91.70399 
L 276.42525 77.00324 
L 291.126 62.30249 
" clip-path="url(#p62197ce2bb)" style="fill: none; stroke: #b0b0b0; stroke-width: 0.8; stroke-linecap: square"/>
     </g>
    </g>
   </g>
   <g id="matplotlib.axis_2">
    <g id="ytick_1">
     <g id="line2d_9">
      <path d="M 173.52 156.196023 
L 156.752754 163.141244 
L 149.807533 179.90849 
L 156.752754 196.675736 
L 173.52 203.620957 
L 190.287246 196.675736 
L 197.232467 179.90849 
L 190.287246 163.141244 
L 173.52 156.196023 
" clip-path="url(#p62197ce2bb)" style="fill: none; stroke: #b0b0b0; stroke-width: 0.8; stroke-linecap: square"/>
     </g>
     <g id="text_1">
      <!-- 0.1 -->
      <g style="fill: #959595" transform="translate(164.445632 153.841652) scale(0.2 -0.2)">
       <defs>
        <path id="DejaVuSans-30" d="M 2034 4250 
Q 1547 4250 1301 3770 
Q 1056 3291 1056 2328 
Q 1056 1369 1301 889 
Q 1547 409 2034 409 
Q 2525 409 2770 889 
Q 3016 1369 3016 2328 
Q 3016 3291 2770 3770 
Q 2525 4250 2034 4250 
z
M 2034 4750 
Q 2819 4750 3233 4129 
Q 3647 3509 3647 2328 
Q 3647 1150 3233 529 
Q 2819 -91 2034 -91 
Q 1250 -91 836 529 
Q 422 1150 422 2328 
Q 422 3509 836 4129 
Q 1250 4750 2034 4750 
z
" transform="scale(0.015625)"/>
        <path id="DejaVuSans-2e" d="M 684 794 
L 1344 794 
L 1344 0 
L 684 0 
L 684 794 
z
" transform="scale(0.015625)"/>
        <path id="DejaVuSans-31" d="M 794 531 
L 1825 531 
L 1825 4091 
L 703 3866 
L 703 4441 
L 1819 4666 
L 2450 4666 
L 2450 531 
L 3481 531 
L 3481 0 
L 794 0 
L 794 531 
z
" transform="scale(0.015625)"/>
       </defs>
       <use xlink:href="#DejaVuSans-30"/>
       <use xlink:href="#DejaVuSans-2e" x="63.623047"/>
       <use xlink:href="#DejaVuSans-31" x="95.410156"/>
      </g>
     </g>
    </g>
    <g id="ytick_2">
     <g id="line2d_10">
      <path d="M 173.52 132.483556 
L 139.985508 146.373998 
L 126.095066 179.90849 
L 139.985508 213.442982 
L 173.52 227.333424 
L 207.054492 213.442982 
L 220.944934 179.90849 
L 207.054492 146.373998 
L 173.52 132.483556 
" clip-path="url(#p62197ce2bb)" style="fill: none; stroke: #b0b0b0; stroke-width: 0.8; stroke-linecap: square"/>
     </g>
     <g id="text_2">
      <!-- 0.2 -->
      <g style="fill: #959595" transform="translate(155.371264 131.934189) scale(0.2 -0.2)">
       <defs>
        <path id="DejaVuSans-32" d="M 1228 531 
L 3431 531 
L 3431 0 
L 469 0 
L 469 531 
Q 828 903 1448 1529 
Q 2069 2156 2228 2338 
Q 2531 2678 2651 2914 
Q 2772 3150 2772 3378 
Q 2772 3750 2511 3984 
Q 2250 4219 1831 4219 
Q 1534 4219 1204 4116 
Q 875 4013 500 3803 
L 500 4441 
Q 881 4594 1212 4672 
Q 1544 4750 1819 4750 
Q 2544 4750 2975 4387 
Q 3406 4025 3406 3419 
Q 3406 3131 3298 2873 
Q 3191 2616 2906 2266 
Q 2828 2175 2409 1742 
Q 1991 1309 1228 531 
z
" transform="scale(0.015625)"/>
       </defs>
       <use xlink:href="#DejaVuSans-30"/>
       <use xlink:href="#DejaVuSans-2e" x="63.623047"/>
       <use xlink:href="#DejaVuSans-32" x="95.410156"/>
      </g>
     </g>
    </g>
    <g id="ytick_3">
     <g id="line2d_11">
      <path d="M 173.52 108.771089 
L 123.218262 129.606751 
L 102.382599 179.90849 
L 123.218262 230.210228 
L 173.52 251.045891 
L 223.821738 230.210228 
L 244.657401 179.90849 
L 223.821738 129.606751 
L 173.52 108.771089 
" clip-path="url(#p62197ce2bb)" style="fill: none; stroke: #b0b0b0; stroke-width: 0.8; stroke-linecap: square"/>
     </g>
     <g id="text_3">
      <!-- 0.3 -->
      <g style="fill: #959595" transform="translate(146.296895 110.026726) scale(0.2 -0.2)">
       <defs>
        <path id="DejaVuSans-33" d="M 2597 2516 
Q 3050 2419 3304 2112 
Q 3559 1806 3559 1356 
Q 3559 666 3084 287 
Q 2609 -91 1734 -91 
Q 1441 -91 1130 -33 
Q 819 25 488 141 
L 488 750 
Q 750 597 1062 519 
Q 1375 441 1716 441 
Q 2309 441 2620 675 
Q 2931 909 2931 1356 
Q 2931 1769 2642 2001 
Q 2353 2234 1838 2234 
L 1294 2234 
L 1294 2753 
L 1863 2753 
Q 2328 2753 2575 2939 
Q 2822 3125 2822 3475 
Q 2822 3834 2567 4026 
Q 2313 4219 1838 4219 
Q 1578 4219 1281 4162 
Q 984 4106 628 3988 
L 628 4550 
Q 988 4650 1302 4700 
Q 1616 4750 1894 4750 
Q 2613 4750 3031 4423 
Q 3450 4097 3450 3541 
Q 3450 3153 3228 2886 
Q 3006 2619 2597 2516 
z
" transform="scale(0.015625)"/>
       </defs>
       <use xlink:href="#DejaVuSans-30"/>
       <use xlink:href="#DejaVuSans-2e" x="63.623047"/>
       <use xlink:href="#DejaVuSans-33" x="95.410156"/>
      </g>
     </g>
    </g>
    <g id="ytick_4">
     <g id="line2d_12">
      <path d="M 173.52 85.058622 
L 106.451015 112.839505 
L 78.670132 179.90849 
L 106.451015 246.977474 
L 173.52 274.758357 
L 240.588985 246.977474 
L 268.369868 179.90849 
L 240.588985 112.839505 
L 173.52 85.058622 
" clip-path="url(#p62197ce2bb)" style="fill: none; stroke: #b0b0b0; stroke-width: 0.8; stroke-linecap: square"/>
     </g>
     <g id="text_4">
      <!-- 0.4 -->
      <g style="fill: #959595" transform="translate(137.222527 88.119264) scale(0.2 -0.2)">
       <defs>
        <path id="DejaVuSans-34" d="M 2419 4116 
L 825 1625 
L 2419 1625 
L 2419 4116 
z
M 2253 4666 
L 3047 4666 
L 3047 1625 
L 3713 1625 
L 3713 1100 
L 3047 1100 
L 3047 0 
L 2419 0 
L 2419 1100 
L 313 1100 
L 313 1709 
L 2253 4666 
z
" transform="scale(0.015625)"/>
       </defs>
       <use xlink:href="#DejaVuSans-30"/>
       <use xlink:href="#DejaVuSans-2e" x="63.623047"/>
       <use xlink:href="#DejaVuSans-34" x="95.410156"/>
      </g>
     </g>
    </g>
    <g id="ytick_5">
     <g id="line2d_13">
      <path d="M 173.52 61.346155 
L 89.683769 96.072259 
L 54.957665 179.90849 
L 89.683769 263.744721 
L 173.52 298.470824 
L 257.356231 263.744721 
L 292.082335 179.90849 
L 257.356231 96.072259 
L 173.52 61.346155 
" clip-path="url(#p62197ce2bb)" style="fill: none; stroke: #b0b0b0; stroke-width: 0.8; stroke-linecap: square"/>
     </g>
     <g id="text_5">
      <!-- 0.5 -->
      <g style="fill: #959595" transform="translate(128.148159 66.211801) scale(0.2 -0.2)">
       <defs>
        <path id="DejaVuSans-35" d="M 691 4666 
L 3169 4666 
L 3169 4134 
L 1269 4134 
L 1269 2991 
Q 1406 3038 1543 3061 
Q 1681 3084 1819 3084 
Q 2600 3084 3056 2656 
Q 3513 2228 3513 1497 
Q 3513 744 3044 326 
Q 2575 -91 1722 -91 
Q 1428 -91 1123 -41 
Q 819 9 494 109 
L 494 744 
Q 775 591 1075 516 
Q 1375 441 1709 441 
Q 2250 441 2565 725 
Q 2881 1009 2881 1497 
Q 2881 1984 2565 2268 
Q 2250 2553 1709 2553 
Q 1456 2553 1204 2497 
Q 953 2441 691 2322 
L 691 4666 
z
" transform="scale(0.015625)"/>
       </defs>
       <use xlink:href="#DejaVuSans-30"/>
       <use xlink:href="#DejaVuSans-2e" x="63.623047"/>
       <use xlink:href="#DejaVuSans-35" x="95.410156"/>
      </g>
     </g>
    </g>
    <g id="ytick_6">
     <g id="line2d_14">
      <path d="M 173.52 37.633688 
L 72.916523 79.305013 
L 31.245199 179.90849 
L 72.916523 280.511967 
L 173.52 322.183291 
L 274.123477 280.511967 
L 315.794801 179.90849 
L 274.123477 79.305013 
L 173.52 37.633688 
" clip-path="url(#p62197ce2bb)" style="fill: none; stroke: #b0b0b0; stroke-width: 0.8; stroke-linecap: square"/>
     </g>
     <g id="text_6">
      <!-- 0.6 -->
      <g style="fill: #959595" transform="translate(119.073791 44.304338) scale(0.2 -0.2)">
       <defs>
        <path id="DejaVuSans-36" d="M 2113 2584 
Q 1688 2584 1439 2293 
Q 1191 2003 1191 1497 
Q 1191 994 1439 701 
Q 1688 409 2113 409 
Q 2538 409 2786 701 
Q 3034 994 3034 1497 
Q 3034 2003 2786 2293 
Q 2538 2584 2113 2584 
z
M 3366 4563 
L 3366 3988 
Q 3128 4100 2886 4159 
Q 2644 4219 2406 4219 
Q 1781 4219 1451 3797 
Q 1122 3375 1075 2522 
Q 1259 2794 1537 2939 
Q 1816 3084 2150 3084 
Q 2853 3084 3261 2657 
Q 3669 2231 3669 1497 
Q 3669 778 3244 343 
Q 2819 -91 2113 -91 
Q 1303 -91 875 529 
Q 447 1150 447 2328 
Q 447 3434 972 4092 
Q 1497 4750 2381 4750 
Q 2619 4750 2861 4703 
Q 3103 4656 3366 4563 
z
" transform="scale(0.015625)"/>
       </defs>
       <use xlink:href="#DejaVuSans-30"/>
       <use xlink:href="#DejaVuSans-2e" x="63.623047"/>
       <use xlink:href="#DejaVuSans-36" x="95.410156"/>
      </g>
     </g>
    </g>
    <g id="ytick_7">
     <g id="line2d_15">
      <path d="M 173.52 13.921222 
L 56.149277 62.537767 
L 7.532732 179.90849 
L 56.149277 297.279213 
L 173.52 345.895758 
L 290.890723 297.279213 
L 339.507268 179.90849 
L 290.890723 62.537767 
L 173.52 13.921222 
" clip-path="url(#p62197ce2bb)" style="fill: none; stroke: #b0b0b0; stroke-width: 0.8; stroke-linecap: square"/>
     </g>
     <g id="text_7">
      <!-- 0.7 -->
      <g style="fill: #959595" transform="translate(109.999422 22.396875) scale(0.2 -0.2)">
       <defs>
        <path id="DejaVuSans-37" d="M 525 4666 
L 3525 4666 
L 3525 4397 
L 1831 0 
L 1172 0 
L 2766 4134 
L 525 4134 
L 525 4666 
z
" transform="scale(0.015625)"/>
       </defs>
       <use xlink:href="#DejaVuSans-30"/>
       <use xlink:href="#DejaVuSans-2e" x="63.623047"/>
       <use xlink:href="#DejaVuSans-37" x="95.410156"/>
      </g>
     </g>
    </g>
   </g>
   <g id="line2d_16">
    <path d="M 173.52 51.061702 
L 84.205904 90.594393 
L 34.237101 179.90849 
L 57.292213 296.136277 
L 173.52 331.491938 
L 277.84956 284.23805 
L 335.640811 179.90849 
L 269.428807 83.999683 
L 173.52 51.061702 
" clip-path="url(#p62197ce2bb)" style="fill: none; stroke: #8de5a1; stroke-width: 3; stroke-linecap: square"/>
   </g>
   <g id="line2d_17">
    <path d="M 173.52 46.716279 
L 84.856467 91.244957 
L 29.784918 179.90849 
L 72.488057 280.940433 
L 173.52 325.131877 
L 275.821426 282.209916 
L 332.257764 179.90849 
L 267.733539 85.694951 
L 173.52 46.716279 
" clip-path="url(#p62197ce2bb)" style="fill: none; stroke: #ff9f9b; stroke-width: 3; stroke-linecap: square"/>
   </g>
   <g id="patch_6">
    <path d="M 173.52 13.58849 
L 55.914 62.30249 
L 7.2 179.90849 
L 55.914 297.51449 
L 173.52 346.22849 
L 291.126 297.51449 
L 339.84 179.90849 
L 291.126 62.30249 
L 173.52 13.58849 
z
" style="fill: none; stroke: #000000; stroke-width: 0.8; stroke-linejoin: miter; stroke-linecap: square"/>
   </g>
  </g>
 </g>
 <defs>
  <clipPath id="p62197ce2bb">
   <path d="M 173.52 13.58849 
L 55.914 62.30249 
L 7.2 179.90849 
L 55.914 297.51449 
L 173.52 346.22849 
L 291.126 297.51449 
L 339.84 179.90849 
L 291.126 62.30249 
z
"/>
  </clipPath>
 </defs>
</svg>
