<?xml version="1.0" encoding="utf-8" standalone="no"?>
<!DOCTYPE svg PUBLIC "-//W3C//DTD SVG 1.1//EN"
  "http://www.w3.org/Graphics/SVG/1.1/DTD/svg11.dtd">
<svg xmlns:xlink="http://www.w3.org/1999/xlink" width="347.04pt" height="347.04pt" viewBox="0 0 347.04 347.04" xmlns="http://www.w3.org/2000/svg" version="1.1">
 <metadata>
  <rdf:RDF xmlns:dc="http://purl.org/dc/elements/1.1/" xmlns:cc="http://creativecommons.org/ns#" xmlns:rdf="http://www.w3.org/1999/02/22-rdf-syntax-ns#">
   <cc:Work>
    <dc:type rdf:resource="http://purl.org/dc/dcmitype/StillImage"/>
    <dc:date>2024-09-10T08:55:03.583152</dc:date>
    <dc:format>image/svg+xml</dc:format>
    <dc:creator>
     <cc:Agent>
      <dc:title>Matplotlib v3.9.2, https://matplotlib.org/</dc:title>
     </cc:Agent>
    </dc:creator>
   </cc:Work>
  </rdf:RDF>
 </metadata>
 <defs>
  <style type="text/css">*{stroke-linejoin: round; stroke-linecap: butt}</style>
 </defs>
 <g id="figure_1">
  <g id="patch_1">
   <path d="M 0 347.04 
L 347.04 347.04 
L 347.04 -0 
L 0 -0 
z
" style="fill: #ffffff"/>
  </g>
  <g id="axes_1">
   <g id="patch_2">
    <path d="M 173.52 7.2 
L 55.914 55.914 
L 7.2 173.52 
L 55.914 291.126 
L 173.52 339.84 
L 291.126 291.126 
L 339.84 173.52 
L 291.126 55.914 
z
" style="fill: #ffffff"/>
   </g>
   <g id="patch_3">
    <path d="M 173.52 140.84472 
L 153.666712 153.666712 
L 95.238054 173.52 
L 65.450411 281.589589 
L 173.52 297.966073 
L 244.808314 244.808314 
L 332.954428 173.52 
L 235.349435 111.690565 
z
" clip-path="url(#paba423b9fa)" style="fill: #8de5a1; opacity: 0.3; stroke: #8de5a1; stroke-linejoin: miter"/>
   </g>
   <g id="patch_4">
    <path d="M 173.52 130.535628 
L 158.159532 158.159532 
L 87.179944 173.52 
L 114.809629 232.230371 
L 173.52 268.562751 
L 236.623273 236.623273 
L 319.917755 173.52 
L 225.454783 121.585217 
z
" clip-path="url(#paba423b9fa)" style="fill: #ffffff; stroke: #ffffff; stroke-linejoin: miter"/>
   </g>
   <g id="patch_5">
    <path d="M 173.52 130.535628 
L 158.159532 158.159532 
L 87.179944 173.52 
L 114.809629 232.230371 
L 173.52 268.562751 
L 236.623273 236.623273 
L 319.917755 173.52 
L 225.454783 121.585217 
z
" clip-path="url(#paba423b9fa)" style="fill: #ff9f9b; opacity: 0.3; stroke: #ff9f9b; stroke-linejoin: miter"/>
   </g>
   <g id="matplotlib.axis_1">
    <g id="xtick_1">
     <g id="line2d_1">
      <path d="M 173.52 173.52 
L 173.52 152.73 
L 173.52 131.94 
L 173.52 111.15 
L 173.52 90.36 
L 173.52 69.57 
L 173.52 48.78 
L 173.52 27.99 
L 173.52 7.2 
" clip-path="url(#paba423b9fa)" style="fill: none; stroke: #b0b0b0; stroke-width: 0.8; stroke-linecap: square"/>
     </g>
    </g>
    <g id="xtick_2">
     <g id="line2d_2">
      <path d="M 173.52 173.52 
L 158.81925 158.81925 
L 144.1185 144.1185 
L 129.41775 129.41775 
L 114.717 114.717 
L 100.01625 100.01625 
L 85.3155 85.3155 
L 70.61475 70.61475 
L 55.914 55.914 
" clip-path="url(#paba423b9fa)" style="fill: none; stroke: #b0b0b0; stroke-width: 0.8; stroke-linecap: square"/>
     </g>
    </g>
    <g id="xtick_3">
     <g id="line2d_3">
      <path d="M 173.52 173.52 
L 152.73 173.52 
L 131.94 173.52 
L 111.15 173.52 
L 90.36 173.52 
L 69.57 173.52 
L 48.78 173.52 
L 27.99 173.52 
L 7.2 173.52 
" clip-path="url(#paba423b9fa)" style="fill: none; stroke: #b0b0b0; stroke-width: 0.8; stroke-linecap: square"/>
     </g>
    </g>
    <g id="xtick_4">
     <g id="line2d_4">
      <path d="M 173.52 173.52 
L 158.81925 188.22075 
L 144.1185 202.9215 
L 129.41775 217.62225 
L 114.717 232.323 
L 100.01625 247.02375 
L 85.3155 261.7245 
L 70.61475 276.42525 
L 55.914 291.126 
" clip-path="url(#paba423b9fa)" style="fill: none; stroke: #b0b0b0; stroke-width: 0.8; stroke-linecap: square"/>
     </g>
    </g>
    <g id="xtick_5">
     <g id="line2d_5">
      <path d="M 173.52 173.52 
L 173.52 194.31 
L 173.52 215.1 
L 173.52 235.89 
L 173.52 256.68 
L 173.52 277.47 
L 173.52 298.26 
L 173.52 319.05 
L 173.52 339.84 
" clip-path="url(#paba423b9fa)" style="fill: none; stroke: #b0b0b0; stroke-width: 0.8; stroke-linecap: square"/>
     </g>
    </g>
    <g id="xtick_6">
     <g id="line2d_6">
      <path d="M 173.52 173.52 
L 188.22075 188.22075 
L 202.9215 202.9215 
L 217.62225 217.62225 
L 232.323 232.323 
L 247.02375 247.02375 
L 261.7245 261.7245 
L 276.42525 276.42525 
L 291.126 291.126 
" clip-path="url(#paba423b9fa)" style="fill: none; stroke: #b0b0b0; stroke-width: 0.8; stroke-linecap: square"/>
     </g>
    </g>
    <g id="xtick_7">
     <g id="line2d_7">
      <path d="M 173.52 173.52 
L 194.31 173.52 
L 215.1 173.52 
L 235.89 173.52 
L 256.68 173.52 
L 277.47 173.52 
L 298.26 173.52 
L 319.05 173.52 
L 339.84 173.52 
" clip-path="url(#paba423b9fa)" style="fill: none; stroke: #b0b0b0; stroke-width: 0.8; stroke-linecap: square"/>
     </g>
    </g>
    <g id="xtick_8">
     <g id="line2d_8">
      <path d="M 173.52 173.52 
L 188.22075 158.81925 
L 202.9215 144.1185 
L 217.62225 129.41775 
L 232.323 114.717 
L 247.02375 100.01625 
L 261.7245 85.3155 
L 276.42525 70.61475 
L 291.126 55.914 
" clip-path="url(#paba423b9fa)" style="fill: none; stroke: #b0b0b0; stroke-width: 0.8; stroke-linecap: square"/>
     </g>
    </g>
   </g>
   <g id="matplotlib.axis_2">
    <g id="ytick_1">
     <g id="line2d_9">
      <path d="M 173.52 149.243242 
L 156.353739 156.353739 
L 149.243242 173.52 
L 156.353739 190.686261 
L 173.52 197.796758 
L 190.686261 190.686261 
L 197.796758 173.52 
L 190.686261 156.353739 
L 173.52 149.243242 
" clip-path="url(#paba423b9fa)" style="fill: none; stroke: #b0b0b0; stroke-width: 0.8; stroke-linecap: square"/>
     </g>
     <g id="text_1">
      <!-- 0.05 -->
      <g style="fill: #959595" transform="translate(164.229687 146.931825) scale(0.2 -0.2)">
       <defs>
        <path id="DejaVuSans-30" d="M 2034 4250 
Q 1547 4250 1301 3770 
Q 1056 3291 1056 2328 
Q 1056 1369 1301 889 
Q 1547 409 2034 409 
Q 2525 409 2770 889 
Q 3016 1369 3016 2328 
Q 3016 3291 2770 3770 
Q 2525 4250 2034 4250 
z
M 2034 4750 
Q 2819 4750 3233 4129 
Q 3647 3509 3647 2328 
Q 3647 1150 3233 529 
Q 2819 -91 2034 -91 
Q 1250 -91 836 529 
Q 422 1150 422 2328 
Q 422 3509 836 4129 
Q 1250 4750 2034 4750 
z
" transform="scale(0.015625)"/>
        <path id="DejaVuSans-2e" d="M 684 794 
L 1344 794 
L 1344 0 
L 684 0 
L 684 794 
z
" transform="scale(0.015625)"/>
        <path id="DejaVuSans-35" d="M 691 4666 
L 3169 4666 
L 3169 4134 
L 1269 4134 
L 1269 2991 
Q 1406 3038 1543 3061 
Q 1681 3084 1819 3084 
Q 2600 3084 3056 2656 
Q 3513 2228 3513 1497 
Q 3513 744 3044 326 
Q 2575 -91 1722 -91 
Q 1428 -91 1123 -41 
Q 819 9 494 109 
L 494 744 
Q 775 591 1075 516 
Q 1375 441 1709 441 
Q 2250 441 2565 725 
Q 2881 1009 2881 1497 
Q 2881 1984 2565 2268 
Q 2250 2553 1709 2553 
Q 1456 2553 1204 2497 
Q 953 2441 691 2322 
L 691 4666 
z
" transform="scale(0.015625)"/>
       </defs>
       <use xlink:href="#DejaVuSans-30"/>
       <use xlink:href="#DejaVuSans-2e" x="63.623047"/>
       <use xlink:href="#DejaVuSans-30" x="95.410156"/>
       <use xlink:href="#DejaVuSans-35" x="159.033203"/>
      </g>
     </g>
    </g>
    <g id="ytick_2">
     <g id="line2d_10">
      <path d="M 173.52 124.966483 
L 139.187479 139.187479 
L 124.966483 173.52 
L 139.187479 207.852521 
L 173.52 222.073517 
L 207.852521 207.852521 
L 222.073517 173.52 
L 207.852521 139.187479 
L 173.52 124.966483 
" clip-path="url(#paba423b9fa)" style="fill: none; stroke: #b0b0b0; stroke-width: 0.8; stroke-linecap: square"/>
     </g>
     <g id="text_2">
      <!-- 0.10 -->
      <g style="fill: #959595" transform="translate(154.939374 124.503025) scale(0.2 -0.2)">
       <defs>
        <path id="DejaVuSans-31" d="M 794 531 
L 1825 531 
L 1825 4091 
L 703 3866 
L 703 4441 
L 1819 4666 
L 2450 4666 
L 2450 531 
L 3481 531 
L 3481 0 
L 794 0 
L 794 531 
z
" transform="scale(0.015625)"/>
       </defs>
       <use xlink:href="#DejaVuSans-30"/>
       <use xlink:href="#DejaVuSans-2e" x="63.623047"/>
       <use xlink:href="#DejaVuSans-31" x="95.410156"/>
       <use xlink:href="#DejaVuSans-30" x="159.033203"/>
      </g>
     </g>
    </g>
    <g id="ytick_3">
     <g id="line2d_11">
      <path d="M 173.52 100.689725 
L 122.021218 122.021218 
L 100.689725 173.52 
L 122.021218 225.018782 
L 173.52 246.350275 
L 225.018782 225.018782 
L 246.350275 173.52 
L 225.018782 122.021218 
L 173.52 100.689725 
" clip-path="url(#paba423b9fa)" style="fill: none; stroke: #b0b0b0; stroke-width: 0.8; stroke-linecap: square"/>
     </g>
     <g id="text_3">
      <!-- 0.15 -->
      <g style="fill: #959595" transform="translate(145.64906 102.074224) scale(0.2 -0.2)">
       <use xlink:href="#DejaVuSans-30"/>
       <use xlink:href="#DejaVuSans-2e" x="63.623047"/>
       <use xlink:href="#DejaVuSans-31" x="95.410156"/>
       <use xlink:href="#DejaVuSans-35" x="159.033203"/>
      </g>
     </g>
    </g>
    <g id="ytick_4">
     <g id="line2d_12">
      <path d="M 173.52 76.412966 
L 104.854958 104.854958 
L 76.412966 173.52 
L 104.854958 242.185042 
L 173.52 270.627034 
L 242.185042 242.185042 
L 270.627034 173.52 
L 242.185042 104.854958 
L 173.52 76.412966 
" clip-path="url(#paba423b9fa)" style="fill: none; stroke: #b0b0b0; stroke-width: 0.8; stroke-linecap: square"/>
     </g>
     <g id="text_4">
      <!-- 0.20 -->
      <g style="fill: #959595" transform="translate(136.358747 79.645424) scale(0.2 -0.2)">
       <defs>
        <path id="DejaVuSans-32" d="M 1228 531 
L 3431 531 
L 3431 0 
L 469 0 
L 469 531 
Q 828 903 1448 1529 
Q 2069 2156 2228 2338 
Q 2531 2678 2651 2914 
Q 2772 3150 2772 3378 
Q 2772 3750 2511 3984 
Q 2250 4219 1831 4219 
Q 1534 4219 1204 4116 
Q 875 4013 500 3803 
L 500 4441 
Q 881 4594 1212 4672 
Q 1544 4750 1819 4750 
Q 2544 4750 2975 4387 
Q 3406 4025 3406 3419 
Q 3406 3131 3298 2873 
Q 3191 2616 2906 2266 
Q 2828 2175 2409 1742 
Q 1991 1309 1228 531 
z
" transform="scale(0.015625)"/>
       </defs>
       <use xlink:href="#DejaVuSans-30"/>
       <use xlink:href="#DejaVuSans-2e" x="63.623047"/>
       <use xlink:href="#DejaVuSans-32" x="95.410156"/>
       <use xlink:href="#DejaVuSans-30" x="159.033203"/>
      </g>
     </g>
    </g>
    <g id="ytick_5">
     <g id="line2d_13">
      <path d="M 173.52 52.136208 
L 87.688697 87.688697 
L 52.136208 173.52 
L 87.688697 259.351303 
L 173.52 294.903792 
L 259.351303 259.351303 
L 294.903792 173.52 
L 259.351303 87.688697 
L 173.52 52.136208 
" clip-path="url(#paba423b9fa)" style="fill: none; stroke: #b0b0b0; stroke-width: 0.8; stroke-linecap: square"/>
     </g>
     <g id="text_5">
      <!-- 0.25 -->
      <g style="fill: #959595" transform="translate(127.068434 57.216624) scale(0.2 -0.2)">
       <use xlink:href="#DejaVuSans-30"/>
       <use xlink:href="#DejaVuSans-2e" x="63.623047"/>
       <use xlink:href="#DejaVuSans-32" x="95.410156"/>
       <use xlink:href="#DejaVuSans-35" x="159.033203"/>
      </g>
     </g>
    </g>
    <g id="ytick_6">
     <g id="line2d_14">
      <path d="M 173.52 27.859449 
L 70.522437 70.522437 
L 27.859449 173.52 
L 70.522437 276.517563 
L 173.52 319.180551 
L 276.517563 276.517563 
L 319.180551 173.52 
L 276.517563 70.522437 
L 173.52 27.859449 
" clip-path="url(#paba423b9fa)" style="fill: none; stroke: #b0b0b0; stroke-width: 0.8; stroke-linecap: square"/>
     </g>
     <g id="text_6">
      <!-- 0.30 -->
      <g style="fill: #959595" transform="translate(117.778121 34.787824) scale(0.2 -0.2)">
       <defs>
        <path id="DejaVuSans-33" d="M 2597 2516 
Q 3050 2419 3304 2112 
Q 3559 1806 3559 1356 
Q 3559 666 3084 287 
Q 2609 -91 1734 -91 
Q 1441 -91 1130 -33 
Q 819 25 488 141 
L 488 750 
Q 750 597 1062 519 
Q 1375 441 1716 441 
Q 2309 441 2620 675 
Q 2931 909 2931 1356 
Q 2931 1769 2642 2001 
Q 2353 2234 1838 2234 
L 1294 2234 
L 1294 2753 
L 1863 2753 
Q 2328 2753 2575 2939 
Q 2822 3125 2822 3475 
Q 2822 3834 2567 4026 
Q 2313 4219 1838 4219 
Q 1578 4219 1281 4162 
Q 984 4106 628 3988 
L 628 4550 
Q 988 4650 1302 4700 
Q 1616 4750 1894 4750 
Q 2613 4750 3031 4423 
Q 3450 4097 3450 3541 
Q 3450 3153 3228 2886 
Q 3006 2619 2597 2516 
z
" transform="scale(0.015625)"/>
       </defs>
       <use xlink:href="#DejaVuSans-30"/>
       <use xlink:href="#DejaVuSans-2e" x="63.623047"/>
       <use xlink:href="#DejaVuSans-33" x="95.410156"/>
       <use xlink:href="#DejaVuSans-30" x="159.033203"/>
      </g>
     </g>
    </g>
   </g>
   <g id="line2d_15">
    <path d="M 173.52 140.84472 
L 153.666712 153.666712 
L 95.238054 173.52 
L 65.450411 281.589589 
L 173.52 297.966073 
L 244.808314 244.808314 
L 332.954428 173.52 
L 235.349435 111.690565 
L 173.52 140.84472 
" clip-path="url(#paba423b9fa)" style="fill: none; stroke: #8de5a1; stroke-width: 3; stroke-linecap: square"/>
   </g>
   <g id="line2d_16">
    <path d="M 173.52 130.535628 
L 158.159532 158.159532 
L 87.179944 173.52 
L 114.809629 232.230371 
L 173.52 268.562751 
L 236.623273 236.623273 
L 319.917755 173.52 
L 225.454783 121.585217 
L 173.52 130.535628 
" clip-path="url(#paba423b9fa)" style="fill: none; stroke: #ff9f9b; stroke-width: 3; stroke-linecap: square"/>
   </g>
   <g id="patch_6">
    <path d="M 173.52 7.2 
L 55.914 55.914 
L 7.2 173.52 
L 55.914 291.126 
L 173.52 339.84 
L 291.126 291.126 
L 339.84 173.52 
L 291.126 55.914 
L 173.52 7.2 
z
" style="fill: none; stroke: #000000; stroke-width: 0.8; stroke-linejoin: miter; stroke-linecap: square"/>
   </g>
  </g>
 </g>
 <defs>
  <clipPath id="paba423b9fa">
   <path d="M 173.52 7.2 
L 55.914 55.914 
L 7.2 173.52 
L 55.914 291.126 
L 173.52 339.84 
L 291.126 291.126 
L 339.84 173.52 
L 291.126 55.914 
z
"/>
  </clipPath>
 </defs>
</svg>
